<svg width="221" height="69" viewBox="0 0 221 69" fill="none" xmlns="http://www.w3.org/2000/svg">
<path d="M80.26 47C80.044 47 79.864 46.928 79.72 46.784C79.576 46.64 79.504 46.46 79.504 46.244L79.576 45.92L88.216 22.7C88.456 22.1 88.888 21.8 89.512 21.8H93.472C94.096 21.8 94.528 22.1 94.768 22.7L103.408 45.92L103.48 46.244C103.48 46.46 103.396 46.64 103.228 46.784C103.084 46.928 102.916 47 102.724 47H99.52C99.016 47 98.668 46.772 98.476 46.316L96.82 41.96H86.164L84.508 46.316C84.316 46.772 83.968 47 83.464 47H80.26ZM87.424 37.784H95.56L91.492 26.696L87.424 37.784ZM114.586 54.92C112.45 54.92 110.722 54.56 109.402 53.84C108.082 53.144 107.146 52.34 106.594 51.428C106.042 50.516 105.766 49.736 105.766 49.088C105.766 48.848 105.85 48.644 106.018 48.476C106.186 48.332 106.39 48.26 106.63 48.26H109.834C110.05 48.26 110.23 48.308 110.374 48.404C110.542 48.524 110.674 48.728 110.77 49.016C111.034 49.64 111.43 50.168 111.958 50.6C112.486 51.056 113.302 51.284 114.406 51.284C115.846 51.284 116.902 50.96 117.574 50.312C118.246 49.688 118.582 48.584 118.582 47V44.552C117.286 46.088 115.45 46.856 113.074 46.856C110.578 46.856 108.694 46.1 107.422 44.588C106.174 43.076 105.502 41.012 105.406 38.396L105.37 37.424L105.406 36.452C105.502 33.884 106.186 31.82 107.458 30.26C108.73 28.7 110.602 27.92 113.074 27.92C114.346 27.92 115.462 28.16 116.422 28.64C117.382 29.12 118.174 29.768 118.798 30.584V29.18C118.798 28.916 118.882 28.7 119.05 28.532C119.242 28.364 119.458 28.28 119.698 28.28H122.65C122.89 28.28 123.094 28.364 123.262 28.532C123.43 28.7 123.514 28.916 123.514 29.18L123.55 46.532C123.55 49.196 122.806 51.26 121.318 52.724C119.83 54.188 117.586 54.92 114.586 54.92ZM114.442 43.04C115.786 43.04 116.794 42.608 117.466 41.744C118.138 40.88 118.51 39.824 118.582 38.576C118.606 38.384 118.618 38 118.618 37.424C118.618 36.848 118.606 36.464 118.582 36.272C118.51 35.024 118.138 33.968 117.466 33.104C116.794 32.24 115.786 31.808 114.442 31.808C111.85 31.808 110.482 33.392 110.338 36.56L110.302 37.424C110.302 41.168 111.682 43.04 114.442 43.04ZM136.41 47.36C133.722 47.36 131.586 46.592 130.002 45.056C128.442 43.52 127.614 41.336 127.518 38.504L127.482 37.604C127.482 34.604 128.262 32.24 129.822 30.512C131.406 28.784 133.59 27.92 136.374 27.92C139.23 27.92 141.426 28.784 142.962 30.512C144.522 32.24 145.302 34.544 145.302 37.424V38.18C145.302 38.42 145.218 38.624 145.05 38.792C144.882 38.96 144.666 39.044 144.402 39.044H132.45V39.332C132.498 40.676 132.858 41.792 133.53 42.68C134.226 43.544 135.174 43.976 136.374 43.976C137.742 43.976 138.858 43.424 139.722 42.32C139.938 42.056 140.106 41.9 140.226 41.852C140.346 41.78 140.55 41.744 140.838 41.744H144.006C144.222 41.744 144.402 41.804 144.546 41.924C144.714 42.044 144.798 42.212 144.798 42.428C144.798 43.004 144.45 43.688 143.754 44.48C143.082 45.248 142.11 45.92 140.838 46.496C139.566 47.072 138.09 47.36 136.41 47.36ZM140.334 35.984V35.912C140.334 34.496 139.974 33.368 139.254 32.528C138.558 31.664 137.598 31.232 136.374 31.232C135.15 31.232 134.19 31.664 133.494 32.528C132.798 33.368 132.45 34.496 132.45 35.912V35.984H140.334ZM149.986 47C149.746 47 149.542 46.916 149.374 46.748C149.206 46.58 149.122 46.376 149.122 46.136V29.144C149.122 28.88 149.206 28.676 149.374 28.532C149.542 28.364 149.746 28.28 149.986 28.28H152.974C153.238 28.28 153.442 28.364 153.586 28.532C153.754 28.676 153.838 28.88 153.838 29.144V30.62C155.302 28.82 157.306 27.92 159.85 27.92C162.058 27.92 163.81 28.64 165.106 30.08C166.402 31.52 167.05 33.5 167.05 36.02V46.136C167.05 46.376 166.966 46.58 166.798 46.748C166.654 46.916 166.45 47 166.186 47H162.946C162.706 47 162.502 46.916 162.334 46.748C162.166 46.58 162.082 46.376 162.082 46.136V36.236C162.082 34.844 161.734 33.764 161.038 32.996C160.366 32.204 159.394 31.808 158.122 31.808C156.898 31.808 155.914 32.204 155.17 32.996C154.426 33.788 154.054 34.868 154.054 36.236V46.136C154.054 46.376 153.97 46.58 153.802 46.748C153.658 46.916 153.454 47 153.19 47H149.986ZM179.722 47.36C177.082 47.36 174.97 46.628 173.386 45.164C171.826 43.7 170.998 41.672 170.902 39.08L170.866 37.64L170.902 36.2C170.998 33.608 171.826 31.58 173.386 30.116C174.97 28.652 177.082 27.92 179.722 27.92C181.618 27.92 183.214 28.256 184.51 28.928C185.83 29.6 186.802 30.428 187.426 31.412C188.074 32.372 188.422 33.296 188.47 34.184C188.494 34.424 188.41 34.628 188.218 34.796C188.05 34.964 187.846 35.048 187.606 35.048H184.402C184.138 35.048 183.946 35 183.826 34.904C183.706 34.784 183.586 34.58 183.466 34.292C183.106 33.38 182.626 32.72 182.026 32.312C181.45 31.904 180.706 31.7 179.794 31.7C178.57 31.7 177.61 32.084 176.914 32.852C176.242 33.62 175.882 34.796 175.834 36.38L175.798 37.712L175.834 38.9C175.978 42.02 177.298 43.58 179.794 43.58C180.73 43.58 181.486 43.388 182.062 43.004C182.638 42.596 183.106 41.924 183.466 40.988C183.562 40.724 183.67 40.532 183.79 40.412C183.934 40.292 184.138 40.232 184.402 40.232H187.606C187.846 40.232 188.05 40.316 188.218 40.484C188.41 40.652 188.494 40.856 188.47 41.096C188.422 41.936 188.086 42.848 187.462 43.832C186.838 44.792 185.878 45.62 184.582 46.316C183.286 47.012 181.666 47.36 179.722 47.36ZM192.944 25.22C192.704 25.22 192.5 25.136 192.332 24.968C192.164 24.8 192.08 24.596 192.08 24.356V21.728C192.08 21.464 192.164 21.248 192.332 21.08C192.5 20.912 192.704 20.828 192.944 20.828H196.256C196.52 20.828 196.736 20.912 196.904 21.08C197.072 21.248 197.156 21.464 197.156 21.728V24.356C197.156 24.596 197.06 24.8 196.868 24.968C196.7 25.136 196.496 25.22 196.256 25.22H192.944ZM193.088 47C192.848 47 192.644 46.916 192.476 46.748C192.308 46.58 192.224 46.376 192.224 46.136V29.144C192.224 28.88 192.308 28.676 192.476 28.532C192.644 28.364 192.848 28.28 193.088 28.28H196.148C196.388 28.28 196.592 28.364 196.76 28.532C196.928 28.7 197.012 28.904 197.012 29.144V46.136C197.012 46.376 196.928 46.58 196.76 46.748C196.592 46.916 196.388 47 196.148 47H193.088ZM210.067 47.36C207.235 47.36 205.051 46.64 203.515 45.2C201.979 43.76 201.151 41.768 201.031 39.224L200.995 37.64L201.031 36.056C201.151 33.536 201.991 31.556 203.551 30.116C205.111 28.652 207.283 27.92 210.067 27.92C212.827 27.92 214.987 28.652 216.547 30.116C218.107 31.556 218.947 33.536 219.067 36.056C219.091 36.344 219.103 36.872 219.103 37.64C219.103 38.408 219.091 38.936 219.067 39.224C218.947 41.768 218.119 43.76 216.583 45.2C215.047 46.64 212.875 47.36 210.067 47.36ZM210.067 43.724C211.339 43.724 212.311 43.328 212.983 42.536C213.679 41.744 214.051 40.58 214.099 39.044C214.123 38.804 214.135 38.336 214.135 37.64C214.135 36.944 214.123 36.476 214.099 36.236C214.051 34.7 213.679 33.536 212.983 32.744C212.287 31.928 211.315 31.52 210.067 31.52C208.795 31.52 207.811 31.928 207.115 32.744C206.419 33.536 206.047 34.7 205.999 36.236L205.963 37.64L205.999 39.044C206.047 40.58 206.419 41.744 207.115 42.536C207.811 43.328 208.795 43.724 210.067 43.724Z" fill="#0B0757"/>
<path d="M18 44.8923C10 40.2735 10 28.7265 18 24.1077L33.75 15.0144C41.75 10.3956 51.75 16.1691 51.75 25.4067L51.75 43.5933C51.75 52.8309 41.75 58.6044 33.75 53.9856L18 44.8923Z" fill="#1374F6"/>
<path d="M29.25 44.4593C21.5833 40.0329 21.5833 28.9671 29.25 24.5407L45 15.4474C52.6667 11.0211 62.25 16.554 62.25 25.4067L62.25 43.5933C62.25 52.446 52.6667 57.9789 45 53.5526L29.25 44.4593Z" fill="white" fill-opacity="0.67" stroke="#F2F2F2"/>
</svg>
